# xmcd CD database file
#
# Track frame offsets:
#	150
#	16618
#	39450
#	57080
#	73979
#	95740
#	110689
#	126844
#	140860
#	156583
#	170410
#	190660
#	203344
#	238738
#
# Disc length: 3438 seconds
#
# Revision: 0
# Processed by: cddbd v1.4PL0 Copyright (c) Steve Scherf et al.
# Submitted via: CDex 1.51
#
DISCID=c80d6c0e
DTITLE=Governor Davis and The Blues Ambassadors - I Am The Governor
DYEAR=1997
DGENRE=Blues
TTITLE0=I Am The Governor
TTITLE1=Soul Town
TTITLE2=I've Got A Secret
TTITLE3=Where's My Ribs?
TTITLE4=Shorted
TTITLE5=Ain't That The Blues
TTITLE6=Rhythm and Rhyme
TTITLE7=Mirror Image
TTITLE8=Back Door Woman
TTITLE9=Guns and Violence
TTITLE10=Don't Let The Blues Get You Down
TTITLE11=Don't Forget To Boogie!
TTITLE12=Runnin' With The Blues
TTITLE13=Soul Town (radio mix)
EXTD=YEAR: 1997
EXTT0=
EXTT1=
EXTT2=
EXTT3=
EXTT4=
EXTT5=
EXTT6=
EXTT7=
EXTT8=
EXTT9=
EXTT10=
EXTT11=
EXTT12=
EXTT13=
PLAYORDER=
